<svg width="145" height="66" viewBox="0 0 145 66" fill="none" xmlns="http://www.w3.org/2000/svg">
<path d="M61.6432 26.2771V8.28133H73.9275V11.8137H65.9928V15.5042H73.1454V19.0454H65.9928V26.2771H61.6432ZM80.4672 8.28133V26.2771H76.1176V8.28133H80.4672ZM83.1977 26.2771V8.28133H90.6315C91.9789 8.28133 93.1417 8.52443 94.12 9.01065C95.1041 9.491 95.8627 10.1822 96.3958 11.0844C96.9289 11.9807 97.1954 13.0439 97.1954 14.2741C97.1954 15.5218 96.923 16.5821 96.3782 17.455C95.8334 18.3219 95.0602 18.9839 94.0585 19.4408C93.0568 19.8919 91.8705 20.1174 90.4997 20.1174H85.7987V16.6905H89.6913C90.3474 16.6905 90.8952 16.6055 91.3345 16.4357C91.7797 16.2599 92.1165 15.9963 92.345 15.6448C92.5735 15.2875 92.6877 14.8306 92.6877 14.2741C92.6877 13.7175 92.5735 13.2577 92.345 12.8945C92.1165 12.5254 91.7797 12.2501 91.3345 12.0685C90.8893 11.8811 90.3416 11.7873 89.6913 11.7873H87.5473V26.2771H83.1977ZM93.3292 18.0525L97.8105 26.2771H93.0655L88.672 18.0525H93.3292ZM99.5811 26.2771V8.28133H112.129V11.8137H103.931V15.5042H111.487V19.0454H103.931V22.7447H112.129V26.2771H99.5811ZM71.3704 43.6765C71.3119 43.0322 71.0512 42.5313 70.5884 42.174C70.1315 41.8108 69.4783 41.6292 68.6289 41.6292C68.0665 41.6292 67.5979 41.7024 67.223 41.8488C66.8481 41.9953 66.5669 42.1974 66.3794 42.4552C66.192 42.707 66.0953 42.997 66.0895 43.3251C66.0777 43.5945 66.1305 43.8318 66.2476 44.0368C66.3706 44.2418 66.5464 44.4234 66.7748 44.5816C67.0092 44.7339 67.2903 44.8686 67.6184 44.9858C67.9464 45.103 68.3155 45.2055 68.7256 45.2934L70.2721 45.6448C71.1625 45.8381 71.9475 46.0959 72.627 46.4181C73.3124 46.7403 73.8865 47.124 74.3492 47.5692C74.8179 48.0144 75.1723 48.527 75.4125 49.1069C75.6526 49.6869 75.7757 50.3371 75.7815 51.0576C75.7757 52.1941 75.4886 53.1694 74.9204 53.9837C74.3522 54.798 73.535 55.4218 72.4688 55.8553C71.4085 56.2888 70.1285 56.5056 68.6289 56.5056C67.1234 56.5056 65.8112 56.28 64.6923 55.829C63.5734 55.3779 62.7035 54.6925 62.0826 53.7728C61.4616 52.8531 61.1424 51.6903 61.1248 50.2844H65.2898C65.325 50.8643 65.4802 51.3476 65.7555 51.7342C66.0309 52.1208 66.4087 52.4137 66.8891 52.6129C67.3753 52.8121 67.9377 52.9117 68.5762 52.9117C69.162 52.9117 69.6599 52.8326 70.07 52.6744C70.4859 52.5163 70.8051 52.2966 71.0277 52.0154C71.2504 51.7342 71.3646 51.412 71.3704 51.0488C71.3646 50.7091 71.2591 50.4191 71.0541 50.1789C70.8491 49.9329 70.5327 49.722 70.1051 49.5463C69.6833 49.3647 69.1444 49.1977 68.4883 49.0454L66.6079 48.6061C65.0497 48.2487 63.8224 47.6717 62.9261 46.875C62.0299 46.0725 61.5847 44.9887 61.5905 43.6238C61.5847 42.5108 61.8834 41.5354 62.4868 40.6978C63.0902 39.8601 63.9249 39.2069 64.9911 38.7383C66.0572 38.2696 67.2728 38.0353 68.6377 38.0353C70.0319 38.0353 71.2416 38.2725 72.2667 38.747C73.2977 39.2157 74.0973 39.8747 74.6656 40.7241C75.2338 41.5735 75.5238 42.5577 75.5355 43.6765H71.3704ZM77.3895 41.8137V38.2813H92.5998V41.8137H87.1431V56.2771H82.855V41.8137H77.3895ZM110.888 47.2792C110.888 49.2592 110.507 50.9375 109.745 52.3142C108.984 53.6908 107.953 54.7364 106.652 55.4511C105.358 56.1658 103.905 56.5231 102.294 56.5231C100.677 56.5231 99.2216 56.1629 97.9269 55.4423C96.6323 54.7218 95.6042 53.6761 94.8427 52.3054C94.087 50.9287 93.7092 49.2534 93.7092 47.2792C93.7092 45.2992 94.087 43.6209 94.8427 42.2443C95.6042 40.8676 96.6323 39.822 97.9269 39.1073C99.2216 38.3926 100.677 38.0353 102.294 38.0353C103.905 38.0353 105.358 38.3926 106.652 39.1073C107.953 39.822 108.984 40.8676 109.745 42.2443C110.507 43.6209 110.888 45.2992 110.888 47.2792ZM106.442 47.2792C106.442 46.1076 106.275 45.1176 105.941 44.3092C105.613 43.5008 105.138 42.8886 104.517 42.4727C103.902 42.0568 103.161 41.8488 102.294 41.8488C101.433 41.8488 100.692 42.0568 100.071 42.4727C99.45 42.8886 98.9726 43.5008 98.6387 44.3092C98.3106 45.1176 98.1466 46.1076 98.1466 47.2792C98.1466 48.4508 98.3106 49.4408 98.6387 50.2492C98.9726 51.0576 99.45 51.6698 100.071 52.0857C100.692 52.5016 101.433 52.7096 102.294 52.7096C103.161 52.7096 103.902 52.5016 104.517 52.0857C105.138 51.6698 105.613 51.0576 105.941 50.2492C106.275 49.4408 106.442 48.4508 106.442 47.2792ZM113.427 56.2771V38.2813H120.861C122.208 38.2813 123.371 38.5244 124.349 39.0106C125.334 39.491 126.092 40.1822 126.625 41.0844C127.158 41.9807 127.425 43.0439 127.425 44.2741C127.425 45.5218 127.153 46.5821 126.608 47.455C126.063 48.3219 125.29 48.9839 124.288 49.4408C123.286 49.8919 122.1 50.1174 120.729 50.1174H116.028V46.6905H119.921C120.577 46.6905 121.125 46.6055 121.564 46.4357C122.009 46.2599 122.346 45.9963 122.574 45.6448C122.803 45.2875 122.917 44.8306 122.917 44.2741C122.917 43.7175 122.803 43.2577 122.574 42.8945C122.346 42.5254 122.009 42.2501 121.564 42.0685C121.119 41.8811 120.571 41.7873 119.921 41.7873H117.777V56.2771H113.427ZM123.559 48.0525L128.04 56.2771H123.295L118.902 48.0525H123.559ZM129.811 56.2771V38.2813H142.358V41.8137H134.16V45.5042H141.717V49.0454H134.16V52.7447H142.358V56.2771H129.811Z" fill="#C71D1D"/>
<path d="M46.2642 14.2713C43.5764 15.6919 41.0701 17.271 38.7829 18.9187C37.003 14.2766 34.5612 9.39734 31.5848 4.65874C18.8875 11.3693 8.3758 21.7292 6.38918 29.1434C2.86046 42.3127 10.3793 55.769 23.1823 59.1996C35.9853 62.6301 49.2249 54.736 52.7536 41.5667C54.2308 36.0537 51.8981 23.2415 46.2642 14.2713ZM34.8028 48.986C32.1407 49.9543 29.1272 50.144 26.1404 49.3437C18.6734 47.3429 13.9213 40.7741 16.0707 32.7525C17.1414 28.7566 20.6006 25.91 27.2296 21.2394C27.7256 22.2574 33.982 36.9517 33.982 36.9517L41.9044 31.656C42.1429 32.4797 42.3472 33.2777 42.5169 34.0352C43.9002 40.1949 40.854 46.7861 34.8028 48.986Z" fill="#C71D1D"/>
</svg>
